/* XPM */
static char *_0230824_120449d1703601331[] = {
/* columns rows colors chars-per-pixel */
"60 60 245 2 ",
"   c None",
".  c #3C394C",
"X  c #252E5B",
"o  c #272E58",
"O  c #2B3155",
"+  c #2C325B",
"@  c #273058",
"#  c #383758",
"$  c #1E2A68",
"%  c #1E2776",
"&  c #242C64",
"*  c #21276C",
"=  c #232D6B",
"-  c #292C66",
";  c #2B3464",
":  c #28316C",
">  c #363766",
",  c #222C73",
"<  c #222C7B",
"1  c #243075",
"2  c #263279",
"3  c #363A77",
"4  c #453D4C",
"5  c #433E53",
"6  c #433E5B",
"7  c #443D64",
"8  c #494356",
"9  c #5B4B5C",
"0  c #544857",
"q  c #52515F",
"w  c #50414D",
"e  c #634D56",
"r  c #65525A",
"t  c #6C555C",
"y  c #6B565A",
"u  c #78595B",
"i  c #4C4368",
"p  c #594A68",
"a  c #555462",
"s  c #5D5565",
"d  c #484676",
"f  c #554C73",
"g  c #5C5175",
"h  c #654D65",
"j  c #6B5A64",
"k  c #65556D",
"l  c #6A5868",
"z  c #745C64",
"x  c #7B5C64",
"c  c #745C6C",
"v  c #7C5E6B",
"b  c #715465",
"n  c #695973",
"m  c #775B73",
"M  c #6D626B",
"N  c #7C6264",
"B  c #73636B",
"V  c #7D636B",
"C  c #78676C",
"Z  c #786A74",
"A  c #7E747A",
"S  c #7C7177",
"D  c #656271",
"F  c #7D605F",
"G  c #815D5F",
"H  c #845E69",
"J  c #835774",
"K  c #836364",
"L  c #84646A",
"P  c #8B6569",
"I  c #8B6B6C",
"U  c #876967",
"Y  c #946C69",
"T  c #956967",
"R  c #95716C",
"E  c #9B736C",
"W  c #9D786D",
"Q  c #876974",
"!  c #81767C",
"~  c #8B7B7C",
"^  c #867477",
"/  c #947473",
"(  c #9C7B74",
")  c #9C7D7B",
"_  c #957A77",
"`  c #88706A",
"'  c #A27C72",
"]  c #AA7E72",
"[  c #A17B6F",
"{  c #98817E",
"}  c #A3847C",
"|  c #A88579",
" . c #B08C7C",
".. c #1D2988",
"X. c #192997",
"o. c #242A83",
"O. c #223287",
"+. c #243198",
"@. c #1627A7",
"#. c #1C30AA",
"$. c #0F25B9",
"%. c #1629B5",
"&. c #1C32B7",
"*. c #2134A9",
"=. c #2537BA",
"-. c #353CB4",
";. c #3445B4",
":. c #3A5192",
">. c #51518D",
",. c #6D588C",
"<. c #79688A",
"1. c #796D90",
"2. c #5056B6",
"3. c #7474B1",
"4. c #5C5EB3",
"5. c #0419D3",
"6. c #0A26C9",
"7. c #172CC8",
"8. c #1A35C9",
"9. c #0827D9",
"0. c #182BD8",
"q. c #1835D9",
"w. c #0F30DB",
"e. c #2739C8",
"r. c #293BD6",
"t. c #0217E7",
"y. c #011DF8",
"u. c #0428E9",
"i. c #192CE4",
"p. c #0834ED",
"a. c #1936E8",
"s. c #0023F5",
"d. c #0024FC",
"f. c #012CFC",
"g. c #052CF5",
"h. c #0133FE",
"j. c #013BFF",
"k. c #0936F8",
"l. c #153BFE",
"z. c #1C3BFE",
"x. c #1836F7",
"c. c #1526F2",
"v. c #243CEB",
"b. c #233DF8",
"n. c #2930ED",
"m. c #663AFE",
"M. c #443DFE",
"N. c #2B46C7",
"B. c #2846D7",
"V. c #3657D7",
"C. c #3050CD",
"Z. c #3C64CD",
"A. c #1D45E7",
"S. c #0343FF",
"D. c #034BFF",
"F. c #0C47FF",
"G. c #1748FC",
"H. c #0457FF",
"J. c #1856FE",
"K. c #2849E8",
"L. c #2A55E7",
"P. c #3758E5",
"I. c #2443FE",
"U. c #2848F8",
"Y. c #374BFB",
"T. c #235BFD",
"R. c #2956FA",
"E. c #3657FB",
"W. c #364CE7",
"Q. c #1C65F6",
"!. c #3A69E7",
"~. c #2967FD",
"^. c #3764FB",
"/. c #2A78FA",
"(. c #3879FC",
"). c #2E6DE6",
"_. c #1745D4",
"`. c #4E59D4",
"'. c #466DCB",
"]. c #4368D6",
"[. c #5073D4",
"{. c #4658E8",
"}. c #4559F9",
"|. c #4E4EF5",
" X c #7859FC",
".X c #6C51F6",
"XX c #4669E6",
"oX c #5466E9",
"OX c #4776E8",
"+X c #5774EB",
"@X c #5966FC",
"#X c #4777F5",
"$X c #5878F3",
"%X c #4866F8",
"&X c #6D6FF0",
"*X c #7A6AC1",
"=X c #886688",
"-X c #867B82",
";X c #977684",
":X c #896A91",
">X c #826C9D",
",X c #9557FE",
"<X c #9B6BF8",
"1X c #8A6AF2",
"2X c #AB6AFF",
"3X c #7785AF",
"4X c #3688F2",
"5X c #498BD2",
"6X c #658ECA",
"7X c #5BA6DD",
"8X c #6BA7DB",
"9X c #5189EF",
"0X c #6E8CEE",
"qX c #51A8F2",
"wX c #6CB4F0",
"eX c #8D8387",
"rX c #9A8586",
"tX c #908D92",
"yX c #A28583",
"uX c #A48984",
"iX c #AA8C83",
"pX c #A38C8B",
"aX c #A88C8A",
"sX c #AB948C",
"dX c #AA938B",
"fX c #B19285",
"gX c #B1988C",
"hX c #A38F91",
"jX c #A69494",
"kX c #AA9592",
"lX c #AD9B94",
"zX c #AC9C9B",
"xX c #A69699",
"cX c #B19C93",
"vX c #B09F99",
"bX c #AFA09D",
"nX c #8B94A4",
"mX c #ADA1A1",
"MX c #91ABBF",
"NX c #88A6C8",
"BX c #9286EC",
"VX c #AA8AF2",
"CX c #AB99F1",
"ZX c #91ABED",
"AX c #9095DE",
/* pixels */
"                                                [.'.'.[.OX5XOXOXOXOXOX(.                                                ",
"                                          '.'.'.'.'.'.'.Z.!.!.!.!.!.Z.!.^.^.^.                                          ",
"                                    ^.XX].'.Z.Z.Z.Z.Z.'.!.R.T.T.R.!.V.P.R.T.T.R.~.T.                                    ",
"                                E.R.E.P.V.V.V.V.V.Z.C.C.L.R.G.J.T.L.V.L.R.G.G.J.J.T.T.T.                                ",
"                            E.E.R.U.U.L.V.V.W.L.W.L.C.C.K.G.F.S.F.K.B.K.U.F.F.F.G.G.G.G.G.J.                            ",
"                          }.E.U.U.U.U.K.K.B.K.I.I.G.K.B.b.l.S.S.j.G.B.B.l.F.D.D.F.G.G.F.F.F.F.                          ",
"                      U.Y.Y.Y.I.G.G.b.K.K.v.U.b.G.I.b.a.x.l.j.S.j.A.B._.k.j.j.S.S.S.j.j.j.j.F.A.B.                      ",
"                    B.K.I.I.b.b.z.b.b.v.v.v.v.z.z.b.l.l.k.k.j.j.j.p.q.q.k.h.j.j.j.h.h.h.j.j.k.A.B.B.                    ",
"                  N.N.B.A.l.z.x.l.x.x.x.K.a.a.z.l.z.l.l.k.f.k.h.h.p.q.w.h.h.h.h.h.f.h.h.h.h.k._.8.a.S.                  ",
"                U.N.;.N.r.n.x.x.x.x.a.a.a.a.r.q.x.k.k.g.g.f.h.h.f.p.7.w.f.f.f.f.g.f.f.f.h.f.p.w.8.k.j.S.                ",
"              E.I.A.e.=.=.e.q.a.a.c.a.c.a.w.8.=.8.q.0.w.u.f.h.h.h.p.7.w.s.d.f.d.u.g.d.f.f.f.p.8.w.f.h.j.j.              ",
"            }.}.U.z.q.=.&.=.8.0.i.a.x.v.x.i.8.#.+.*.#.&.8.c.g.g.g.u.7.9.d.d.d.d.9.u.d.d.d.d.9.8.u.f.f.h.h.a.            ",
"            Y.Y.I.l.p.8.&.&.&.0.w.i.b.I.U.q.&.O.O.O.O.O.+.#.#.#.&.#.#.7.u.s.d.u.9.u.y.y.y.y.6.6.u.f.f.f.p.8.            ",
"          x.x.z.l.h.p.w.7.7.0.0.i.x.b.K._.*.2 2 1 1 1 1 < 2 2 1 < 2 O.O.+.%.%.$.$.6.t.y.y.t.$.6.u.d.f.s.9.7.*.          ",
"        q.i.p.f.f.f.u.9.6.w.i.i.i.r.*.+.1 1 $ : $ : : , : : 1 $ , 1 , 2 2 2 < O.O.@.6.t.5.$.@.$.u.y.s.u.6.#.=.8.        ",
"        q.w.u.h.j.j.g.u.9.w.i.0.7..., * : $ $ & $ & & & $ = = = - = : : : 1 1 2 < O...X.X.X.X.@.6.t.u.9.8.#.&.a.        ",
"      x.g.p.g.j.H.H.D.k.9.0.7.#.< $ $ $ $ X $ X X X X X X $ X & & & : : : : : : 1 1 , 1 % o...X.$.5.6.6.=.=.7.u.h.      ",
"      x.l.h.S.D.H.H.H.J.p.6.X.% * $ $ X X X X X X X @ @ X X X X + + + ; ; ; : ; : : = $ * * ..X.@.$.$.$.@.%.7.u.f.      ",
"    |.b.l.F.D.H.D.H.J.Q._...* & $ $ X X X X @ @ X @ @ @ @ @ o @ + + + > ; + ; ; : : & = * * * % X.X.@.@.@.%.9.s.f.f.    ",
"    }.E.G.H.H.D.S.k.H._...$ * & X X X X o @ @ @ X @ @ @ O O O O + + # > > > ; > + + ; & * * * * % X.X.@.@.$.u.d.f.f.    ",
"    @X%X~.J.H.S.p.9.&.X.* * & & X X o o o @ O O O O O O + # # # 8 i 8 6 > # > # + + + & & & * * % ..@.@.$.5.s.y.y.g.    ",
"  <X1X@X^.~.J.D.u.$...$ * - X X X o o O O O O # 8 8 8 8 9 j z N K I L c x b h 7 i 7 + X X & & * * % @.$.5.u.d.y.d.l.R.  ",
"  2X<X&X@XE.T.Q.A.#.1 $ * o o # o # # 6 9 j j C ^ ~ ~ _ { } |  . .| ] ] | [ E P j h 8 # + & & & * % X.5.u.f.f.d.d.G.~.  ",
"  2X2X<X X|.E.~.L.X.1 $ & - 7 7 e H H T ( } iXdXsXsXgXdXfXfXfXfX . . . . . .| ' E T x h h 7 - & * * ..5.g.j.j.d.g.~.(.  ",
",X,X,X<X,X.X|.E.r.< - * > 7 b H T E | | | dXdXlXlXlXcXsXfXfXfXfX .gXfXfXfXfX .| ] E T T H H 7 & * * ..6.k.F.k.d.F.~.(./.",
"m.m..X,X X.Xm.b.=.< - 7 h H P T T W } iXjXjXlXlXvXvXlXcXgXgXgXgXgXgXgXcXcXcXgXiX] E T T T H h ; * * ..r.G.F.h.h.G.~.T.A.",
"|.|.|.%X@X@X|.M.+.* > m J H T T W | } jXlXxXlXzXvXvXvXcXgXcXgXcXcXcXvXvXcXcXgXfX] E E T T H p > * * o.r.R.F.g.h.G.G.u.7.",
"%XE.U.~.#X#X%Xr.+.: 7 v P P T T W [ iXjXxXlXxXmXmXbXvXvXlXcXlXlXvXvXvXvXvXcXdX| ] [ E T H H p # & * o.r.R.k.s.s.g.u.$.%.",
"(././.Q.(.(.(.B.o.: p v K Y Y Y W } } dXjXlXxXzXmXmXmXmXvXvXzXlXvXvXvXvXlXlXdX} ] ' [ Y P H p > > * o.`.I.s.t.t.t.5.X.X.",
"~./.Q././.4X4XC.< > g H P Y Y E E W } rXjXjXjXzXmXmXmXzXzXlXlXzXzXzXzXzXlXsXiX| ' ' ( E P v p > > * o.r.u.t.t.t.t.$.+.+.",
"R.T.Q./.4X4X/._.1 > p V U P Y E E W } pXpXjXxXzXzXzXmXzXzXzXzXzXbXbXbXzXzXlXaX| ' ' ' Y P x h 7 7 : o.%.5.t.y.t.5.@.+.*.",
"J.T.Q.H.4X4X4XC.3 3 p v P Y R R R } } pXjXjXxXxXzXzXzXzXzXzXzXzXzXzXmXmXlXjXaXuXyX' ' Y P m p 7 7 3 < @.5.t.y.c.0.7.8.0.",
"/.~./.4X4XqXqXZ.:.> p v U I R E W ( rXjXjXxXzXxXxXzXxXxXxXzXxXzXzXgXlXlXjXhXpXuX{ } / Y P V l p f 3 +.7.i.t.c.n.n.i.a.i.",
"9X4X4X4XqXqXqX4X3 d g V L P Y / W ( } rXrXpXrXhXhXsXkXkXdXdXpXrX{ 3XS M Z Z M C B z U Y K L m k f 7 e.n.b.b.U.E.Y.Y.U.x.",
"(.#X9X4XqXwXwX7X:.d D C N L V B B M M j M B C ` ( yX} } | { { K j q 4 5 8 5 5 5 8 8 8 y H H v k f O.`.%X$X9X$X#X%XE.U.L.",
"|.@X%X#XqXwXwXwX:.d D C B p 5 5 # . . . . . 0 e G Y / R E R G e w 4 5 4 w 0 0 q 0 r 9 9 x v v g d ;.!.+X9X9X9X%XP.E.L.R.",
"  1X&X&X$XwXwXwX5Xd n c p 6 # 8 8 . . . 4 4 4 4 e u U T E T F e 0 w 0 0 9 y N z x z z b x H m f d e.n.|.%X#X#X#X%XE.L.  ",
"  VXVXVXBXBXwXwX7X>.g c p 8 9 r r h a 8 4 4 4 4 4 u T | | { K u e q 0 8 8 8 8 0 0 e u H H L c f >.-.4.4.[.#X$X$X$XXX%X  ",
"  CXCXCXCXZXZXwX8X4.f M s p 0 0 0 8 5 4 4 w w 0 e u T  .gX} R K N y y M 8 8 s s 9 t K I I Q c p =X=X=X,.*X$X$X$X$X@X&X  ",
"    CXCXCXZXZXZX8X6X>.c b k 0 5 8 0 # 4 s Z j N T T W  .dX| { | { ` C C B N C ` I ( ) ) / P n m ;X=X=X,.3.$X$X$X$X$X    ",
"    VXVXVXCXAX1.>XnX,.B V L C l 9 j j j C ^ ;X{ W E ' iXsXiX[ ] | aXpXyXyX;XyXaXaXyX;X} / L c m ;X;X=X>X<X0X9X$X$X+X    ",
"    <X<X<X1X&X4.,.Z m c Q ^ _ / / / _ ;XrXhXhXpX( E ' aXsXiX' [ | kXkXkXkXkXkXkXkXuX) _ I v m h J / :X>X0X0X9X$X+X+X    ",
"       X.XoX$X[.,.m ,.m V ^ _ ) yXpXxXxXxXxXhXyXW R [ aXsXiX[ E ' kXkXkXkXlXkXkXaX;X( P v b m m J =X3.+X+X+XOX#X+X      ",
"      }.{.{.!.9X3.<.m k Z Q / ) ;XrXhXhXxXjXhX' E T ' aXkXaXW E ' uXhXkXkXkXhXpX) / P v b b J J =X:X`.{.|.W.!.!.XX      ",
"        !.XX!.qX7X3X<.c n v Q / ) ;XpXpXhXpXrX( T E ' aXkXaX( E E ] iXaXhXaXyX) / U x b p b Q ;X=X'.W.v.v.K.L.).        ",
"        4X(.).5X7X7X3X<.n c L Q / _ ) yXyXyX) R F u T / R P H u T ;XiX;XuXyX;X' U H z r h Q ;X:X`.L.K.W.W.L.L.).        ",
"          OXXXOXqX7X6X3X<.n m V L / _ ) ) ) ( ( L y y e y u K I ( yX| ' ' ) ( / P N b f ,.<.,.`._.L.L.P.XX!.).          ",
"            1X&X0X7X7X6X1.n k m V I I R R R / / R U u e e y U / _ ) ( ) R / / I V c p 2.XXV.W.L.Q.T.K.L.!.).            ",
"            1X1X&X7X7X5X'.2.>.m b v N K K K F F u y r y B e r y y y y K U ` U N B n 4.&XoX`.OXOXL.K.L.P.).).            ",
"              .XoX!.4X).Q.A.r.7 k l b x u y 0 0 9 e r y t y u y y r r y G F B B n >.].+X0X&X+XoXP.L.P.!.).              ",
"                q.a.A.i.w.0.8.-.f h l j B y y F F N Q S Q L U U U U U F N B B l >.;.W.OX9X+XoX{.P.W.L.!.                ",
"                  e.=.=.=.e.r.{.`.>.l l B F F K F B y r y B N Q ` ` ` ` L B M c >.`.P.!.[.9XXXV.B.r.K.                  ",
"                    ;.C.`.oX&X1X&X4.s l z N K L ` R { { { { { { { { / C C C S Z 4.V.!.V.V.!.OXOX!.P.                    ",
"                      9X0X&X1X&X&X`.,.M j M C C C S ` ` ^ ^ S S M M M B C ^ ^ A 4.Z.OX!.C.V.Z.9X5X                      ",
"                          oXoXoXoX`.1.D M M a q q q q a q q a q q s C Q ^ ~ -X! 1.3.3X[.Z.;.V.                          ",
"                            {.{.{.*X<.Z C C M D a q q q a s s s M S ^ ~ ~ ~ -X-XeX1.nXNXNX6X                            ",
"                                AX3XS ^ A S S C C D M l D M M S ^ ^ { { { eXeX3X{ nXMXMX                                ",
"                                    A A ! A A S A S Z Z D S S ! { ! -X-X{ eXeXtXtXMX                                    ",
"                                          ! -X-XA ` S S S A ! ! -XeX{ 3XtXtXtX                                          ",
"                                                { 3XA A ! ! ! ! eXeX{ {                                                 "
};
