/* XPM */
static char *Screen_Shot_2023_12_26_at_8_37_21703619485[] = {
/* columns rows colors chars-per-pixel */
"60 60 33 1 ",
"  c #36332D",
". c #38342D",
"X c #3F382A",
"o c #4E3E1E",
"O c #513F1E",
"+ c #433C2D",
"@ c #4A3F28",
"# c #513F20",
"$ c #4F401F",
"% c #51401F",
"& c #46402F",
"* c #4E432B",
"= c #554422",
"- c #584723",
"; c #5C4B25",
": c #51452C",
"> c #564A2E",
", c #474130",
"< c #4B4432",
"1 c #584D31",
"2 c #604E27",
"3 c #635027",
"4 c #645229",
"5 c #69562C",
"6 c #6D5A2E",
"7 c #705D2F",
"8 c #725E30",
"9 c #756132",
"0 c #7A6634",
"q c #7D6936",
"w c #806B37",
"e c #836E39",
"r c #85703A",
/* pixels */
".+111111>11111111111#>11111111111112112*:11111111111111111< ",
"X@4;=O;553%%;45;%%%;%42%%;362%%;352%%;%$24%$%464%$%355%%==%.",
"X>05=o3wq5%$4005-%3;3q72o;0e7-O;9q7%%;;;884$;8r93$%6q92%-;=.",
"X>05-O4ww5-$40q6-%;;%q7%o;0w7;o29q8;%;2;992$%8r94$;7q04%;2=.",
"X>05=$4qw6-$40q5-%;;;q7;=;9e7-%;9q7;%;2289;$%9q0;$-7q92%=;;.",
"X>05=#4qq6=$40q5-=;;;09%o;0e6-%;9q7;%;;%98;$%9r92$-6094%;;=.",
"X>05=o4wq5=$49q5-=;;;q62o;0e6;$;8q7;%;;;882$;8q9;$=7q9;$-;-.",
"X>05-%4qq5=*49q6-%;;;06%$;9e6-=;7q7;%;;;882$;8r92%-7q94%;;=.",
"+>04==4qq5==49q5%%3%;06;$;qq7;=;9q72%;;;88;$;8q92$-7q9;=:;%.",
"X>05=#4qq5=$49q52%22%06-=;9q6;o;7q7%%;;;882$%9r92$-6q92=-;-.",
"+>05-o4qq5=$49q5%%2%2w6;o;9e6-o;9q92%;;;982$;8q9;$-609-=-;-.",
"X>05=o3qq5=o49q5%%22%q6;o;9e7-o;9q7%%;;;882$%8r9;$=7q9;$;;=.",
"+>q4=O4qw5=o39q5;;2%;06-$;9w6-*;9q6;%;;;98;$;8q92$=7q9;=-;%.",
"X>q5=o4qw5=$40q5%%33;q6;o;0r7-o;9q7%%;;;99;$%8r9;$-6q9;$;;:.",
"X>04%o4qq4=o;9q5%%;%206-o;9e6-o-7q8;%;;;98;$;8q8;$=609;$-;-.",
"+*62%O2793=o;685%%;%%84%o-694=o%677%$%%%56%$%506-$$477;$%-$.",
"+:04$$;7w4oo;994%%3;%97%%26w6%%%995-$-;$68;$%5q9%$$606;$%;= ",
"+>05=o2qw4$o4005%%;2;q6%%%9e6%o29q6=$;;;89;$%6r02$%7q9%$;;:.",
"+>05=$4qe5=$40q5%%2;;072%;0r8-o;9q7;$;2;99;$;8r92$%9q9;$;2-.",
"+>q5=$4qe6=*40q6;%2;;07%%;0e7-o;9q7-$;2;782$%8r92$-7q9;*%2-.",
"+>05=$3qq5%%40q5%%2;;06;o20e7-%;9q7-%;;;992$%9r9;$%8q9;=;;%.",
"+>05-$4qq6-%20q5;%;;;06;o;9e7-$;9q7;=;;;79;$%8e92$-7q02=;2-.",
"&>05-$4qq6-%29q5;%2;;07;o;0e7;$;9q7;%;;;782$;8e92$-6q9;=-;-.",
"&>05-$4qe5-%4qq5-%2;;07;o39r7-%;9q7;$;;;992$;8r02$-7q9;=;2-.",
"+>q5-$4qw5-=30q6-%2;;q7;o;9r9;$;9q8;$;2;892$;9q9;$;6q9;=-2-.",
"+>05-$4qe6=%49q6-O22;07-o49r6;#;9q8;$;;;89;$-0q02$-6q0;=-2:.",
"&>05-$4qw5=$49q5=%;;;06;o;0r7-o;9q7-%;2;882$-8r02$-6q01%-;=.",
"+>05=$4qe5=$49q6-=;;;q6;$;9r7;$;9q8;%2;;992$-8q92$-7q02%;2=.",
"+>q4-$4qw5-$30q6-=;-;06;$;0e7;=;8q8;$;;;97;$:8q92$-600;%-;-.",
"&>q5-$4qq5-=40q5-=;;;q6;$20e6-*;8q8;%;;;992$-9r02$-8q92%;;:.",
"+1q5=$4we5=$49w5-=2;-q6-o;0e7-o;0q6;%2;;992$-9q92$-8q9;%-2-.",
"&>q4-$4qq5==49q5=%;;;q6;$;0e6-o;8q7;%;;;97;$;0q9;$-6q0;=;;=.",
"&>05-$4qe5=%4qq5%;2;%e6%%20e6;$;9q7;%2;;99;$%9r9;$-7q9;=;;=.",
"&1q5=$4qw5=$49q5;%;;2q7;%30e6;$;9q7-%22;982$%0r04$-7q9;=;;-.",
"@>05-$4qw6=%40q5;%23%073$20e6;$;9q7;%32;99;$%7e9;$;6q92$;;:.",
",>05-%4qw5=%40q5%%;%3q6%o20q6-$;8q7>%%;279;$;9e9;*-6q9;=;;=.",
",>05=o4qq5=#49q5%%3;%06;o;0q7;$;8q7;=-;%882$%8q02==6q9;==;=.",
"&>q4=$4qq5==29q5;;2;3q62$;0e6;$;9q7;$;;;872$29q9;$-6q92$;;=.",
",>05=$4qq5==49q6%%3%206%$;9e6;$;7q6;=;;-88;$;8r9;=-6q92=;;%.",
",>05-%4qq5==49q5%%33%q6;$;0q7;$;9q7;$;;;984$%7e9;==709;=-;-.",
"&>q5=o4qq6%$49q5-%2%306;*;0q6-o;909%%3;;88;o%7e9;$-6q9;$-;=.",
",>05=o4qq5$o4906--;;;q62o;9r6-o;9w92%%;;982o-9e9;$%7q92$-;-.",
"<>94-$4qq6=$49q5%%3%;06%o-9r7;o;907%%;%3982$=7r9;$%7q9;$;;=.",
"&>q5=o4qq6=*40q5%%33;q6;o;9r7-o;9w9%%22;98;$-7r92$;6q9;$;;-.",
"&>94%$2004%o2806%%33%06;o;8q5-o-607%%;%276-o=7w6;$$508;$=-=.",
"<*74$$2703%o-775%%%%%85%o-605=o%699%%%2%47-o=507=$$586;o=;= ",
"<:05%$;0q5$o2094%%%2206%$%6e6=o=906%o%2%79;o%5w9;$$706;$%;= ",
"*>q5=$3qq5$$20q5%%33%w7-$;9r6=o;9w9%O22;993%%7r9;$%7q9;$2;: ",
"<>q5=o4qe6=$40q6=$;;;07;$;9r7;$;9w8-%;2;892$=7r92*-6q92$-2:.",
"<>05==4qq6=$20q5==;;2q6;$;9r6-$;9q8-%;2;792$-7r9;$-7q92%-2-.",
"<>05=o4qq6-$40q5==;;;06;$;9e7-$;9q7-%2;;99;$-9r9;$-6q9;=-2=.",
"<>05=#4qq5-%49q6==;;;06;$39e7;$;8w8;%;3%79;$-7q02$-6q92$-2=.",
",>q5=o4qq6%%40q5;%;;;06;o;9e7-=;9q8;%;2%79;$;9q92$;6q92%-1-.",
"<>q5-=4qq6;$20q6-%3;;07;$20r7-o;9q82%232994$%9r02$=7q02=-2-.",
"<>q5=o4qe6$*40q6-%;2;07;$;0r7;o;9q7%%;2;99;$;8r0;==6q0;=-2=.",
"<>05==4qq6%=49q5-%;;;06;*29q7-=;9q9;%;;;784$;8q9;$;7q92$-2-.",
"<>q5=$4qe5-$20q6-=;;;06;$29e6;=;9q8%%22;882$;9r92$=7q0;=-2:.",
"<1q5-$4qe5=$4qq5-=;;;q6;$;0e6;o;9q92%;;;99;$%9r92==7q9;=-;=.",
"<>05-$4qq5-=49q5-=;;;06;$20e7;$;9q7;%22%982$;9q9;$-7q9;=;;-.",
"<>05-%4ew5=$2qq6=%2;;q6;$20e6-$;9q7;%;2;992$%9r9;=-7q0;=;;=."
};
