/* XPM */
static char *objects_house_0043_Layer_441703607660[] = {
/* columns rows colors chars-per-pixel */
"60 60 49 1 ",
"  c None",
". c #655434",
"X c #6E5C38",
"o c #705E3A",
"O c #74613D",
"+ c #78653E",
"@ c #7C6941",
"# c #816D44",
"$ c #847046",
"% c #877348",
"& c #8A764A",
"* c #8D794C",
"= c #917C4F",
"- c #957F51",
"; c #968151",
": c #9B8554",
"> c #9F8857",
", c #9F8B59",
"< c #A08957",
"1 c #A38C5A",
"2 c #A6905D",
"3 c #A9935E",
"4 c #A59660",
"5 c #AC9661",
"6 c #AD9A63",
"7 c #B29C65",
"8 c #B49F68",
"9 c #ACA066",
"0 c #AEA469",
"q c #B1A067",
"w c #B5A36A",
"e c #B9A56B",
"r c #B3A86D",
"t c #BAA96E",
"y c #B6AD71",
"u c #BBAD71",
"i c #BCB274",
"p c #BCB679",
"a c #BEB87A",
"s c #C0B475",
"d c #C4BC7B",
"f c #C8BF7D",
"g c #C7C17F",
"h c #C9C17E",
"j c #C5BF80",
"k c #C7C181",
"l c #CAC483",
"z c #CEC887",
"x c #D0CB8A",
/* pixels */
"                                                            ",
"                                                            ",
"                                                            ",
"                                                            ",
"                                                            ",
"                                                            ",
"                                                            ",
"                                                            ",
"                                                            ",
"                                                            ",
"                                                            ",
"                                                            ",
"                                                            ",
"                                                            ",
"                                                            ",
"                                                            ",
"                                                            ",
"                                                            ",
"                                                            ",
"                                                            ",
"                                                            ",
"                                                            ",
"              0pppppappppiiyyryrrrrww09666622*              ",
"              pkdxxxllkklzzlllfddsddireetwqwq:              ",
"              pzkkldgkggjkfsddiwwrwtrqq757788;              ",
"              ilkkjgkkllfgffdur66qqttq8853557*              ",
"              izzzlgfddddssuutt678q876551:1,3*              ",
"              izkdgdiyturussttwq888886551:122&              ",
"              thaiisiuurwwweew878e73575311151&              ",
"              rhaiissueew8wwq7535532332111::1$              ",
"              0diutrweweee71>>13531115:>111:1#              ",
"              6itw7787578862>>1773>1211::;:::#              ",
"              4uttss8785557755552<<::<<---==<#              ",
"              2ue735558533332131<:;-=--::--=-+              ",
"              2tteq353113333<<<:--<<:-=--*=*=+              ",
"              ,6333311<<<31<<:::<::<:-=*%##%-#              ",
"              :63263221><-<<<-<--:::=*==&&$#-@              ",
"              %==*&&&%$$###$@@+++@@#+oooooo@o.              ",
"                                                            ",
"                                                            ",
"                                                            ",
"                                                            ",
"                                                            ",
"                                                            ",
"                                                            ",
"                                                            ",
"                                                            ",
"                                                            ",
"                                                            ",
"                                                            ",
"                                                            ",
"                                                            ",
"                                                            ",
"                                                            ",
"                                                            ",
"                                                            ",
"                                                            ",
"                                                            ",
"                                                            ",
"                                                            "
};
