/* XPM */
static char *Screen_Shot_2023_12_26_at_5_36_11703608631[] = {
/* columns rows colors chars-per-pixel */
"60 60 101 2 ",
"   c #161616",
".  c #181718",
"X  c #1B1B1B",
"o  c #201F1F",
"O  c #21201F",
"+  c #242424",
"@  c #282727",
"#  c #292827",
"$  c #272728",
"%  c #282728",
"&  c #2C2B2B",
"*  c #302F2E",
"=  c #32302F",
"-  c #302F30",
";  c #2F3031",
":  c #343333",
">  c #393736",
",  c #373837",
"<  c #3A3837",
"1  c #373738",
"2  c #373839",
"3  c #3C3B3B",
"4  c #413E3D",
"5  c #43403F",
"6  c #3F3F40",
"7  c #3F4040",
"8  c #454342",
"9  c #494646",
"0  c #4B4847",
"q  c #474748",
"w  c #484748",
"e  c #474848",
"r  c #4D4B4A",
"t  c #514E4D",
"y  c #54514E",
"u  c #504F50",
"i  c #545353",
"p  c #595654",
"a  c #5C5956",
"s  c #575758",
"d  c #585758",
"f  c #575858",
"g  c #5C5B5B",
"h  c #615E5C",
"j  c #64615E",
"k  c #68625F",
"l  c #5E5F60",
"z  c #5F6061",
"x  c #646363",
"c  c #6A6663",
"v  c #6C6966",
"b  c #676768",
"n  c #686768",
"m  c #676869",
"M  c #6C6B6B",
"N  c #716A66",
"B  c #726E6B",
"V  c #75716E",
"C  c #7A736F",
"Z  c #6E6F70",
"A  c #757372",
"S  c #7A7674",
"D  c #7D7876",
"F  c #767778",
"G  c #7D7B7B",
"H  c #817B77",
"J  c #817E7C",
"K  c #84807F",
"L  c #88827E",
"P  c #7E7F80",
"I  c #807F80",
"U  c #848282",
"Y  c #898685",
"T  c #8C8986",
"R  c #858688",
"E  c #8C8B8B",
"W  c #928E8C",
"Q  c #95918E",
"!  c #98938F",
"~  c #8E8F90",
"^  c #8F9090",
"/  c #939394",
"(  c #9A9794",
")  c #9D9996",
"_  c #969799",
"`  c #979899",
"'  c #9C9B9A",
"]  c #A19D9A",
"[  c #A5A19F",
"{  c #9D9EA0",
"}  c #A5A3A2",
"|  c #A9A7A5",
" . c #ACA9A6",
".. c #ADABAA",
"X. c #B1AEAC",
"o. c #B4B1AF",
"O. c #B5B3B2",
"+. c #B9B6B4",
"@. c #B8B7B8",
"#. c #BDBCBB",
"$. c #C4C3C2",
/* pixels */
"& 8 q , & & 7 3 & $ , 3 : + ; 3 2 # & r r : $ 3 q 3 $ : e q & ; 6 3 & @ : 3 : + - 3 2 $ & r e ; + + + + + O + & 1 $ 1 6 ",
"i i : $ @ $ & : - + % - - & & $ o : i f f h a a j j h p r @ + & + @ & @ & - & ; & $ X 1 i a g g g g k k j p r & + @ & @ ",
"M i & @ & 3 i l q & r f z g f 8 X : A A F A V B B k k B e o ; i 8 8 i 4 r f z l i 8 X 3 A A D A V B B k c v 0 # + 3 i 6 ",
"g y + $ < x z Z r : i b Z l z q . e z G U Q V c k h k g 8 . : i r r g u s x Z z z 8 X e z G Y E V k k h j g 4 + + 3 s 8 ",
"g 4 X @ 3 m 3 M j < 0 g z f z 3 X y I E ^ E V h p p p a :   # y 8 4 9 9 r g l s z 3 X p U Y ~ E B h a y p f * + X : i 8 ",
"f q @ # 3 j D G v < 9 9 r x l r O p G K J F c a t q y f 3 X 2 f g 9 9 w w q r b g e o a F U K A x p y q i f < + + 8 f a ",
"x f # # 0 v D B i : 5 8 r m G u + y j A b a y y 0 5 s z u X : b p 4 3 8 8 8 r N F r + p x A c a t y r 5 f x r @ + 3 b t ",
"S m : & h G b M 8 , t y a c M M & 3 c g y 0 8 8 r i j A g + , g t : 4 t t u a v Z M & 4 c g y e 8 9 r u j A f & + q g r ",
"g M , & f A 3 Z g 4 y a c S A V & 5 g g 4 4 9 e y a M x x + = a t 9 u p y h v S A M # 8 f a 4 4 9 9 y h M x j & + 3 f r ",
"G c : & 8 p A G c 5 h N S S G a + & s e 3 5 a x k c B G h O : f p g h i h N S D G p X * p 9 4 5 g x k k B S p & + 3 g i ",
"Z c = $ f M D A a 5 v N S D l r X : s p 0 h v D K J S M h O 4 g c h h N N N V D x r X , s y 0 h M D L G S A a $ + r g x ",
"l p # & x T x V 5 9 B v j x M 8 . 3 c v j N G S A S B j r o > M N N B D B N h v m 3 X 4 m c j B J S S S B g q @ + 8 V v ",
"x 0 # # r A 3 m t 5 k c t a l 3 . 8 A V B D L V B j f j 5 O r x B N B B c c y f h 3 X 9 A V B G L B B j h h 3 @ & a b B ",
"f y + $ : p A V k 5 a y 5 r x 4 X y x D N S D k a y x g 8 O j G C c h h p i 5 i b 3 X i x S N S S j a i x a 4 + * M G B ",
"g 5 + $ 5 b S V h 4 4 4 9 g b 8 o r K D c j j a y y a g : + Z G v h a t 4 4 9 g x 4 X y J D c h x p t t a a : + , F G c ",
"g s * # j T g A t * 4 y d c x x # f M M p p g p r e f f u $ x b x 0 5 3 4 s f b b j & a M M p p h s r 9 s f r & : m x x ",
"F F 3 $ a U 6 m 9 * 5 p B A I c # r b j i f t 8 9 p Z G Z & i F t > 4 4 4 h B A I j % u x j i p t 8 q f Z G M * - z A 9 ",
"T A > @ 8 i b x p 4 a c A G b x $ 4 b b a r r r b T / Y c @ 7 z p 4 4 t h c S H m h + 6 n n p r r r c E / U x * + r g i ",
"x A < @ > 9 c B k 9 B G V S A a + 4 g x r u b D / { / b M @ 3 M h r h h N S V S S a O 8 f x r t m G _ { ^ m c * + r M s ",
"U S 3 & t S m J a 9 B J C V B r X = x l x D / _ _ E Y U M & e Z B h h B H H V V M 9 X : b g x G _ _ / E T U b * $ s M M ",
"x M 3 & a I 3 m 0 5 B V h h g 3   3 l F D U / E ~ T G b c $ r M P I H B B B j j g < . 3 l F H Y _ T ~ T G c c * $ f Z K ",
"U D 3 $ t x m x p 5 h h t r d : X u P L C D K T Y K L U V & r U T W S c h h t 0 p - X i J U C D K Y Y I U U M * $ g T E ",
"G A < @ 9 p c U D 4 r 0 4 t f r O x P U H D D H D H T P c # f x S N x a t r 4 y g w + c U L G G S H D H Y G x & # k z D ",
"b A 3 @ i I m E S < 8 8 4 r b i $ h M E Q J C C D D I M A # y V h t 0 r 9 4 4 t x r @ x M ~ E H H S D H K M M * * h M g ",
"^ E 8 & M T 2 F S 3 9 t t j x a % d T ' Y H H D K J T ^ I & 8 x a 8 8 r e t t x b p @ g E ' U H H C I J T ^ P : @ r b p ",
"x I e $ m Q T T D 4 t h j B M c & l m / Y x J Y b J U M P ; , f i 8 8 t y h x B M x & x m / U x J Y x I I M P : + 3 f y ",
"b b 7 $ p M x b x 8 k V N S J m & i b F M x b M x x b m b & & s r t p a v V N S G c & i b F M x c B x x x b z - o , a e ",
"& $ + $ + & # # + 3 N D C S x g + + & % # # + % # & # # @ . , f x x M N N S C S x g o + & & $ & + # & & & & $ $ o 8 g j ",
"i e $ + t A B M j 5 N N v v M r o & r 8 4 r 3 r f g s i 3 X : A V A A B B N v c M e X : r 8 6 r 6 e s g s i 3 $ o 8 F B ",
"z u + @ g Q J Y B 5 v c h h h 9 X : f r r f i s x Z z l q X 8 x F U E A c k h j x 5 . , p r r g u g z Z l l 6 + @ p b G ",
"z e + + g T ; A N 5 h h y a a < . + u 8 4 0 q r z z s h 3 X i G T / E B h h p a g :   # u 4 4 r q r z l s l , + & j P E ",
"g i @ @ q A G _ N 4 a t 0 t d 3 . , f g 9 9 w q q u b g e O a U K K S v p t 0 r a < . < d d 9 9 w w q u x g 8 + & c U K ",
"F g & $ 4 i g F B > t r 4 s l i X * x s 8 3 8 8 5 0 N S r + i j A v h t i 0 4 d x r . : x d 8 3 8 5 5 0 B S 9 @ & h x A ",
"M Z 3 @ 9 B m m e * 9 r i f S a + : z y > 3 r t t a c Z m & 4 v g i 0 9 9 r t h F f o , l r > 3 r r y h c B b - % 0 c g ",
"M F 7 + y U : m r * 5 y a m x m + : a t 4 t p y p c A A A & 8 g g 4 4 9 9 y a v n x + , s t 4 t p y a v S B Z : @ t g f ",
"J x : @ 5 B F U a 3 h j c B S h @ & s i g h y h v S S G a O : s r 3 4 a h h v B S a + * p i h h y h N S D G p & + 3 f r ",
"g a $ @ = 8 g b h 5 A J D S A h + 3 a b h h k N B C F x t X : s y 0 p v S J D S F a o 8 f x h h N N N S S l 9 @ + 3 f r ",
"M r + @ 4 x M b r 8 D S D V x y o > m N N B S C v k c M 4 X 3 x c h N G G S D V x t X < M N N B S B v h m n 3 + + r x b ",
"z e + + a Y ; x 9 5 V B c a x 4 o e c V N B B k c y a g 3 X q S V B S L B B c h x 4 X r x B N B B c c t a g > + @ p A V ",
"x r + + y U A D t 4 k h y x g 8 o f S C N h h h i 5 t x 3 X t x F B H D c a y x g 4 + h S C v j h a i 8 i x < + & f x G ",
"m r @ + 3 a B B h < a t y a g 3 o M U M h a y 5 4 8 f x 8 X t G S v x c a t u g g , + Z U M h a y 5 4 9 f x 4 @ & g U A ",
"g b : @ > a A S y 4 a t 0 i a r $ l x m r q 4 4 i s m x x $ p A N a i j p r r i g 9 @ x z x r 8 4 5 i p n x g & & x A M ",
"P B > @ 0 F : x 9 = 5 5 i M F A & i F i > < 4 5 p M A J x & i x x t p u q 8 i M F Z & s S t < < 4 5 a M A J l & & g x j ",
"b m : @ p W F A 5 = 0 j R ^ E c @ 8 l d 4 5 0 a c A G b j + 4 m c d u r 0 j R / T c + q l i 4 8 0 a c S G n h & # r M x ",
"B c : @ r h V S a 3 Z / { / x Z % 3 n a r i h B D B S V f + 8 g m r r x A / { / c M @ 3 n p t p h B D B S B i & @ r z x ",
"A f $ + 3 g Z J h u / ' ~ Y Y B % q Z M h c N S H A A V r X , x g l A / / ` E E U m @ r Z M h k N S J C A A 8 + + 4 b f ",
"f q o $ t A : m i i E E Y J M m % 0 m J H H C B S c j g 3   3 l F D Y ( W E Y J M v @ r n G H S C B C x h f , + + e z G ",
": & X @ r G G M 8 : r s r r 1 4 o & 9 t u 8 4 3 < : - - o   & : 9 8 8 r r i e q 3 4 o * w r i 8 4 3 3 : * : + + $ j G U ",
": : o + 5 j S N r * 3 : & & * * * & & + & = : # % - 3 < -   o + + O @ * : * O O * : & + O * * = * # & & : , & + * A T K ",
"8 : + + : x V b 3 3 3 > * 8 3 3 * 3 3 6 : 3 3 < 3 w 8 3 &   & 3 2 4 < 6 6 3 - 8 3 3 & , 3 4 : 4 3 3 8 r 8 3 - o : M m ^ ",
"3 8 @ + 3 m $ 2 * 3 X 3 3 3 X 3 3 3 X 3 * 6 X 3 3 6 . 6 3 . & 8 X 2 - 3 . 4 4 3 X 3 3 3 X 3 & 3 . 4 3 3 . 8 < + ; c / { ",
"r q % @ : r 6 3 = 4 3 3 & 3 4 q > > 3 3 > 6 3 < < w q w 6 X & 4 3 < - 4 3 : & 8 5 8 < 4 3 3 : 4 3 , : q q r 6 + ; M Z _ ",
"3 3 @ @ + @ & = * & # # & & = & + + * : * # + & 2 3 < 3 3 . X + * * * & - & - 3 * + + & : * & # % & < 6 6 3 1 + : h Z R ",
"+ + + & + + + + + O o + O + + O O O + + o o o + + + + + $ O o o + + O O + + + + + O o + + + o O + + + + + + + $ & - : : ",
"i i : * 8 8 8 q 5 0 y y t 5 e y p t 8 0 t u i u r 8 r i i 2 8 8 8 9 8 0 u i r 8 0 y p t 8 9 r i u u r 8 r i i 1 & 4 5 8 ",
"O.G & , U Q W W ]  .+. .Q Q | o.] W ! [  .X.X.] | | O.O.| i Y / Q W ]  .O.| ! W  .o.] W ! [ ..X.X.] | | O.O.} 8 # a T ! ",
"~ i # , _ X.U | o.X.R | o.o.Y ..] ] U o.X.X.Y | $.#.T X.| s ( ..I ..X.X.E ..o.o.E | ] ) Y O.X...U ..$.O.T X.} 8 + q I F ",
"l i % : / X.q Y ] [ 8 _ O.' 8 ' #.] 6 ( [ [ 4 ( O.{ 6 } +.f ) ..8 W ] ) 6 ' o./ 6 } #._ 8 ) } ) 6 [ O._ 8 ..O.q + q b & ",
"B t # > (  .}  . .O.| ' ) O.o.+.X.O...o.X.O.| ] | $.@.$.#.a _ ..}  .X.+.| ] ] O.O.+.X.o...X.X.O.} } ..#.@.$.+.w + 5 M G ",
"v a & : B H ) ] ) E ) ) } | ( L D W } ) W T T ( | ..X...} i B G ] ] ( W ( ( [ | ) J D Q ] ] T T T ) ..X.....} 8 + t v B "
};
