/* XPM */
static char *Idlefrendly_1703619674[] = {
/* columns rows colors chars-per-pixel */
"60 60 185 2 ",
"   c None",
".  c #010102",
"X  c #0A0505",
"o  c #0E0807",
"O  c #05060C",
"+  c #0D070A",
"@  c #06080F",
"#  c #0C0B0D",
"$  c #100706",
"%  c #120A0B",
"&  c #1A0C0B",
"*  c #100B06",
"=  c #1C120C",
"-  c #070912",
";  c #0A0B13",
":  c #0B0E1A",
">  c #1B0F13",
",  c #0F1113",
"<  c #0E1119",
"1  c #111317",
"2  c #1E1114",
"3  c #11141D",
"4  c #1B1519",
"5  c #171B1F",
"6  c #220F0D",
"7  c #24170F",
"8  c #23180F",
"9  c #221413",
"0  c #2E1513",
"q  c #241911",
"w  c #2C1D14",
"e  c #22141C",
"r  c #2D1818",
"t  c #26171C",
"y  c #321615",
"u  c #391917",
"i  c #381B19",
"p  c #2F2014",
"a  c #372518",
"s  c #382618",
"d  c #0E1122",
"f  c #121523",
"g  c #161B2A",
"h  c #151A2B",
"j  c #181C33",
"k  c #221E24",
"l  c #341E24",
"z  c #331F28",
"x  c #1D2127",
"c  c #1C2232",
"v  c #1E253C",
"b  c #24262D",
"n  c #362324",
"m  c #3D2324",
"M  c #342028",
"N  c #3D252E",
"B  c #262B32",
"V  c #232A3D",
"C  c #282935",
"Z  c #3E2731",
"A  c #2D333C",
"S  c #421E1B",
"D  c #44251D",
"F  c #48271E",
"G  c #412B1C",
"H  c #47301F",
"J  c #442624",
"K  c #4D2421",
"L  c #492927",
"P  c #4B2B28",
"I  c #412A26",
"U  c #512420",
"Y  c #582824",
"T  c #542E2B",
"R  c #592B29",
"E  c #4D3421",
"W  c #533924",
"Q  c #593D27",
"!  c #59332E",
"~  c #5C3D29",
"^  c #57342A",
"/  c #452B36",
"(  c #4B2E3B",
")  c #5E3331",
"_  c #51323E",
"`  c #6B2E2B",
"'  c #602B27",
"]  c #6E312D",
"[  c #643F2F",
"{  c #71322E",
"}  c #643933",
"|  c #693C34",
" . c #603632",
".. c #7B3732",
"X. c #7E3833",
"o. c #703F3A",
"O. c #5E4029",
"+. c #5F4030",
"@. c #62432B",
"#. c #68472E",
"$. c #6B4333",
"%. c #6F4930",
"&. c #714B32",
"*. c #74433B",
"=. c #7B463F",
"-. c #765134",
";. c #7A5435",
":. c #7D5738",
">. c #242B42",
",. c #283046",
"<. c #2C354D",
"1. c #333A44",
"2. c #2E3750",
"3. c #543440",
"4. c #39414C",
"5. c #414A56",
"6. c #454E5B",
"7. c #47515E",
"8. c #7A4440",
"9. c #4A5462",
"0. c #813934",
"q. c #855A3A",
"w. c #8A5E3D",
"e. c #8E623F",
"r. c #824B41",
"t. c #8C4F47",
"y. c #8C5346",
"u. c #8E5F40",
"i. c #875043",
"p. c #9B5F4B",
"a. c #97594B",
"s. c #AA5E58",
"d. c #946441",
"f. c #996943",
"g. c #9F6948",
"h. c #9B6548",
"j. c #A46F47",
"k. c #A4664E",
"l. c #A36A4B",
"z. c #A57249",
"x. c #AA754B",
"c. c #AC784C",
"v. c #B47A4F",
"b. c #AB6455",
"n. c #B46C58",
"m. c #B47D50",
"M. c #BE745C",
"N. c #B77654",
"B. c #BE6A62",
"V. c #C1775D",
"C. c #C67A5E",
"Z. c #C87E5E",
"A. c #C57164",
"S. c #C97565",
"D. c #C97964",
"F. c #C38556",
"G. c #CD8D5B",
"H. c #C8815D",
"J. c #D3935F",
"K. c #D9945F",
"L. c #CE8C60",
"P. c #D38265",
"I. c #D58A63",
"U. c #DA8769",
"Y. c #DD8A69",
"T. c #DD8F66",
"R. c #DC9462",
"E. c #DF9962",
"W. c #E18D6A",
"Q. c #E29B63",
"!. c #E5946A",
"~. c #E9976B",
"^. c #EC9B6C",
"/. c #E89E66",
"(. c #F19E6E",
"). c #EBA067",
"_. c #EEA469",
"`. c #E5A469",
"'. c #F5A56C",
"]. c #F8A76E",
"[. c #F4A96D",
"{. c #FDAC6F",
"}. c #FFAE70",
"|. c #FFB272",
" X c #FFB977",
/* pixels */
"                                                                                                                        ",
"                                                                                                                        ",
"                                                                                                                        ",
"                                                                                                                        ",
"                                                                                                                        ",
"                                                                                                                        ",
"                                                                                                                        ",
"                                                                                                                        ",
"                                                                                                                        ",
"                                                                                                                        ",
"                                                                                                                        ",
"                                                                                                                        ",
"                                                                                                                        ",
"                                                                                                                        ",
"                                                                                                                        ",
"                                                      8 w f.z.z.z.q.q q                                                 ",
"                                              a @.@.m.Q.Q.}.|.|.|.{.E.Q.e.@.                                            ",
"                                        8 H z.F.|.}.|.{.{.}.{.|.{.{.}.}.}.}.m.s                                         ",
"                                    . O.K./.|.}.{.{.|.|.}.}.{.}.{.|.}.}.}.}.|.K.@.                                      ",
"                                    w.P.].}.].].].}.{.{.}.}.}.}.}.}.}.}.}.}.}.}.[.d.                                    ",
"                                  E E.Y.Y.Y.S.U./.}.}.}.}.}.}.}.}.}.}.}.}.}.}.}.~.A.a.E                                 ",
"                                . v.|.}.{.~.^.}.|.}.}.}.}.}.}.}.}.}.}.}.}.}.}.}.~.~.(.E.c.Q                             ",
"                                . v.|.{.}.|.{.}.{.{.}.}.}.}.}.}.}.}.}.}.}.}.}.}.{.}.}.}.L.Q                             ",
"                                  W G.Y.U.P.P.!.}.}.].}.}.}.}.}.}.}.}.}.}.}.|.}.}.{.^.D.)                               ",
"                                    = R.^.A.s.=.r.8.b.W.}.|.{.}.}.{.}.}.'.~.m.j.r.y.S.8.+                               ",
"                                    d._.].b.m z M M J P b.C.].{.}.}.[.I.*.J n M z z | 8.*                               ",
"                                . j.}.}.}.F., 3.3.3.( / l 2 M.}.{.|.f.2 N / _ 3.3.Z r P.c.G                             ",
"                                ! R.}.}.}.'.w.n ( 3._ 3._ % n.].`.[.q.e 3.3.3._ / m p.]. X&.                            ",
"                                ! r.r.r.!.^.}.v.P z z z z L C.d.n +.q.I M z z z T D.|.E.z.Q                             ",
"                                        J  .M.I.R.z.z.z.j.!.R.+ / e &.J.z.z.z.x.~.'.k.E                                 ",
"                                            & J n._.}.|.|.|.).O.@.~ z.|.|.|.|.(.R.*.                                    ",
"                                                t P a.M.'.).]._.].[.].[.|.q.k.! J                                       ",
"                                                  ! *.T *.0 | w ! H @.@.c.a +                                           ",
"                                                  | A. .o.l.j.x.c.x.x.x.s                                               ",
"                                                  q.U. .o.i.y.x.x.x.x.x.E                                               ",
"                                                . :.D.s.t .                                                             ",
"                                            3 3 c C k k >.>.f 3 <                                                       ",
"                                    8 f.d.&.g <.<.<.<.<.<.<.<.<.,.f                                                     ",
"                                  . m.].p q : v <.<.<.<.<.<.<.<.<.V ;                                                   ",
"                                    @.Q     O j >.<.<.<.<.<.<.<.<.<.g                                                   ",
"                                  . c.=     O d v <.<.<.<.<.<.<.<.<.g                                                   ",
"                                  . F.q       @ j >.<.<.<.2.<.<.<.2.g                                                   ",
"                                  . F.q       @ d j v >.V c j c c V g                                                   ",
"                                  q.#.          @ h : @ 4 e.9 : : < n 0                                                 ",
"                                . v.a             O - . t.{.L.X + S X.u                                                 ",
"                                u [ 7               % ;.| &.k.7 S F F &                                                 ",
"                              6 R { ] $             d.|.r. .} N.%.z.`.@.                                                ",
"                              S 0.....$         9 T @.F.h.*.T ! $.n.v.q.W                                               ",
"                            & Y 0.X...$       Q I.T     d.D.V.V.C.H.$.x.@.                                              ",
"                            y X.0.0.X.$       a j.$.      O.@.~ @.G T S. .                                              ",
"                        1 1 o i U U U X         &.;.          $ ] ] R ! F.H                                             ",
"                        , B b 2 9 t 2 .         ;.;.          X y y y $ z.E                                             ",
"                        B 7.9.A t l %           -.-.          X 2 2 t $ z.E                                             ",
"                    1 1.9.9.1.x B 4           i V.J.E               + L I.F.w                                           ",
"                  x 5.9.6.B                 & J r.h.^ &             & ! r.g.D                                           ",
"                A 9.9.4.5                   6 { F U ] 6             u ` K U { $                                         ",
"            f 4.9.7.A #                     S X.X.X.0.6           & K 0.X.X...$                                         ",
"            1 4.5.b                       & X...X.X.0.6           0 0.X.X.X...o                                         ",
"                #                         & X.X.X.X.X.6           0 0.X.X.X...$                                         ",
"                                            0 0 0 0 0 &           & y 0 0 0 0                                           "
};
