/* XPM */
static char *walls_0051_Layer_01703606856[] = {
/* columns rows colors chars-per-pixel */
"60 60 39 1 ",
"  c #57585B",
". c #5B5C5E",
"X c #5D5F61",
"o c #5F6163",
"O c #626366",
"+ c #656669",
"@ c #67686B",
"# c #696B6D",
"$ c #6D6E71",
"% c #6F7073",
"& c #717375",
"* c #757679",
"= c #77787B",
"- c #797B7D",
"; c #7C7E81",
": c #7F8183",
"> c #818386",
", c #848689",
"< c #87898C",
"1 c #898B8E",
"2 c #8C8E91",
"3 c #8F9193",
"4 c #919396",
"5 c #949699",
"6 c #96999B",
"7 c #999B9E",
"8 c #9C9EA1",
"9 c #9EA1A3",
"0 c #A1A3A6",
"q c #A4A6A9",
"w c #A6A9AB",
"e c #A9ABAE",
"r c #ACAEB1",
"t c #AEB0B3",
"y c #B1B3B6",
"u c #B4B6B9",
"i c #B6B9BB",
"p c #B9BABD",
"a c #BCBEC0",
/* pixels */
".$*$OOO@#%#o#*#*:&@+o@%@Xo@$@$$+;::;OX .o;oo;@;;;@;oO;  XO#X",
"$144332334668958q0721131,13353538::7:;;;;::::4::4:5:::;;;<1;",
"&35700000qeqwwweeee8667798655565:q6686666686:87:44555554431$",
"*5880weeqeq867899qeqqeeeere98999qrrerewqqq0977775789999q053$",
"*8e08800q085457767qeqetreeeeeerewttttrrrrerwrrwwawaw9997844;",
"%780eeeereqq845777680qwtreeeerwwwrrttrrtreweqqqw98579767843$",
"$45560000qqq98556898qeeerytrtreerrtrwttrwqq987878qqwwwew862+",
"&550ee8757578788889898990errrrrtttrwrr09878q98qe9aqawwerwr4O",
"*7qwer0777768eeyttewqq08889qqwwqqwq0089890w088888999788war5O",
"&qrrew87880eeertrttytttteq0000880q099qqwww98879q8777875w003O",
"&8qq8767670ee0009990eeertut0900wq099qq098780wrrtaq977578eq3+",
"*5875777000899998888890900wqq98999q887890wwttttrqqqaaw98w84#",
"*5wrreqerrerte0000999qq999qeerettyyrtrtttyyyuteewaawa0qwe84$",
"*5qeere800qqwq799009889q9qtiuytyyuatyyytyuyutwq00qwaawqae84%",
"-5878qe87899qq0qqq000qqqqwtuuuiutyytytyayyatq09989qwqa89884;",
":7775877708qrrryyttttrreeyupuuuuayyayyyyatatute08889888qw84;",
":709989909889qeerttyyyyuiuuuuuyuararraaaratayytr077908qww84=",
":7ettterrw989qaayyuuuyyipuyewwwwee0q080w0ewwrttt0880879qq05=",
":6qrrteraeewq00wtyuyyyyyrrewqweeeewwq009990q00qw09088877675;",
";70000erttattq00etrrreeeweeeeewwweeqwww0q009900000q09877775=",
";qeewerrretteq0wyiyyyuuiiiuuiuyrwwe0wweqrrrq00780rytreqqww9*",
":0wrtttrtarateetiuiiuyuuiipiuuiiaraaaaaaaaytyw080tretyrewe0*",
":69ettrerrtataytyiuyuyttteeqerryraaaaaattataae000qyrrttree9=",
";69etrrwaatrtataiyiyteew00qeewweaaeaartaarrrqqq0770eeeww074-",
":679etrtretyyyttyyttrw00wreeweeetrrttrreeq0qerrw08790077775*",
":6799ett9w99wwwqeerrttuuyeeeeertrwqeeew0wwq0wtyyyee00000774#",
";47778q0999wwwqqwwwwwertryiiiiipttatawtewwwwwweeyyyyyeee073+",
";477879999w999qwwerrttuuiaiipapaataaaaataytyyryrtyyyyyttre3O",
";790q0eerrewweryyyuuuuupappipppaayaauyuuiayyuiuiyyyyeeyrrq4+",
":wertaeayyyyuyauaaiiyupapiyuiippyytaaauyayyreeeeeeq0000e071+",
";9wreatayyyyyyauuaiiupppiiuippppyaauuaaaaauur0w000000087763@",
";670qewwrrrryuyyyuyuippiiipppiapyayayyutttrryyyyyyyee000774$",
";59wreq090qweetauuiupppupuyyytyrrreww99eeee9tuutyuyyyyeeeq5$",
";809wrttttttatatyyuuppiiteeeeytyyyrreerre9w99w99qeeqettyt05#",
";9ewetttattaaetayuuppupiupipiipiipppuiiyuttrr9w90q000eee074$",
";709wtttettteaaruupppppuipiiipiiiuippiuuuuuuautyrq088088874$",
";6878qereeeararauuppuuyyuuyiiiiiuuuppaiuayyyutyuyyeq0880085@",
";6888qweawaeaeaeyuuuyrrrtyiiiiiyyyyyyuaituyattytuyrrq0eter7O",
";9qeertteaaeeaweyyupuuuiuiiyuiiiuppiiiuiayyyyyyyurerq9eyyq5#",
";7qwewqw08qwqweauyuuuuuuuiiiiiiiuyuaaipiyauyyrrrq0008770074#",
";68898887808890wwerrryyrrrrtyyyyatraaaaaatatwq9q08887678863@",
";qewerewew88800qqwqqwwwwqwwwqqwq9qqq0wwrwwwq99q908887780863&",
":w0qerrqwq00reawyytrrtyyyyiyteewwrerrwwrwwwqqqq9q077780q854&",
"5w79ew0weraerrqauttyyuyttiyiuyyyratatatryyyytyyye8880qeye83%",
":8888qearwaewwawyyyuiuyyyyyyyuppaataaaaataatayyreeerrtryt94%",
";600888waaweawrryiauyeqqeqqwrtyyrareyyrtttraetttyyyrtyrwq05&",
"#48eeeww0wawrrrayiuyre0q0800qrrrrrtrtttttyyttewrrrrreq0qee8*",
"$589wrew88000908qqwerrqq0errreerrreeqq99qq0099888089870wq05:",
";48w8898778877888888qq000qqeeerrrrrrarreew8888888wewwwwwe95,",
";68we885557877575778wrrrtttrwqqqwwqq9qetytewwww9wrertt99975,",
";9eeeq8600990qqqqqqrttrttyttrrttrerrrrwarerrrrrrerrytw88665>",
";5wqq8680werrrtrrrrrrrrrttttrrrtarrratrerq888q89qww99658865&",
";5888888980000wrreeerrrrtrttttttttttwtawre889eeerrrww988765#",
"$48qqeerewwwq880eeqqq008999qerrtwq00qewqer98899qwrrrre96785#",
"$4qreweerrrwwww0880887777555790887779756888777880w900999qe7&",
";48qqqqwwwwwwwww80qwww075577775776677666745889wrrwwqqwweww6>",
";5qqq8q88580qqqweqqqqqwww7580wwwq999755544449weewwwwwwwqq73,",
";15888005345888008744688757880877998754444448qq867757888642*",
"@;111111<;1>%**;;,222121,122>>,124:::3:44::2;:::22>,2;><><*o",
"XO$+++@;%X@O X X.o;;-o@OXO%=OXX#%%#@o@@#@o+@X+oX+*oo#oO+Xo. "
};
